<svg xmlns="http://www.w3.org/2000/svg" viewBox="0 0 256 256" width="48" height="48"><g fill="none" fill-rule="evenodd" stroke-miterlimit="10" font-family="none" font-weight="none" font-size="none" text-anchor="none" style="mix-blend-mode:normal"><path d="M122.15 17.525a11.982 11.982 0 0 1 11.695 0c17.894 10.043 71.739 40.272 89.638 50.315 3.62 2.027 5.85 5.781 5.85 9.845V178.31c0 4.064-2.23 7.819-5.85 9.85-17.894 10.044-71.74 40.273-89.638 50.316a11.982 11.982 0 0 1-11.696 0c-17.893-10.043-71.738-40.272-89.637-50.315-3.616-2.032-5.845-5.781-5.845-9.845V77.69c0-4.064 2.229-7.819 5.85-9.851 17.888-10.043 71.744-40.272 89.632-50.315z" fill="#000"/><path d="M28.288 183.488c-1.419-1.899-1.621-3.701-1.621-6.128V77.312c0-4.043 2.224-7.776 5.834-9.792 17.83-9.984 71.494-40.037 89.323-50.027 3.61-2.021 8.501-1.978 12.112.043 17.83 9.984 71.312 39.781 89.141 49.765 1.44.811 2.539 1.787 3.52 3.072z" fill="#000"/><path d="M128 53.333c41.21 0 74.667 33.456 74.667 74.667 0 41.21-33.456 74.667-74.667 74.667-41.21 0-74.667-33.456-74.667-74.667 0-41.21 33.456-74.667 74.667-74.667zm0 37.334c20.603 0 37.333 16.725 37.333 37.333 0 20.603-16.73 37.333-37.333 37.333-20.603 0-37.333-16.73-37.333-37.333 0-20.608 16.725-37.333 37.333-37.333z" fill="#fff"/><path d="M226.587 70.427c2.752 2.576 2.698 6.458 2.698 9.514 0 20.24-.17 77.808.048 98.048.022 2.112-.677 4.336-1.722 6.01l-101.782-56z" fill="#000"/><path d="M165.333 112H176v32h-10.667zm37.334 0h10.666v32h-10.666z" fill="#fff"/><path d="M154.667 122.667h32v10.666h-32zm37.333 0h32v10.666h-32z" fill="#fff"/></g></svg>