<svg xmlns="http://www.w3.org/2000/svg" viewBox="0 0 256 256" width="48" height="48"><g fill="none" stroke-miterlimit="10" font-family="none" font-weight="none" font-size="none" text-anchor="none" style="mix-blend-mode:normal"><path d="M32 224V32h192v192z" fill="#000"/><path d="M157.536 175.717c3.69 5.995 7.701 11.739 16.197 11.739 7.136 0 10.88-3.547 10.88-8.453 0-5.872-3.872-7.958-11.722-11.376l-4.304-1.835c-12.422-5.27-20.683-11.872-20.683-25.819 0-12.853 9.84-22.634 25.216-22.634 10.95 0 18.816 3.792 24.49 13.722l-13.407 8.57c-2.95-5.268-6.14-7.343-11.083-7.343-5.045 0-8.24 3.184-8.24 7.344 0 5.141 3.2 7.221 10.587 10.405l4.304 1.835c14.64 6.235 22.896 12.603 22.896 26.917 0 15.424-12.182 23.878-28.534 23.878-15.994 0-25.077-8.027-30.133-17.963zm-61.792.438c2.699 4.832 6.8 8.549 12.699 8.549 5.642 0 8.89-2.23 8.89-10.896v-56.475h17.776v59.206c0 17.957-10.416 26.128-25.626 26.128-13.744 0-23.664-9.312-27.707-17.963z" fill="#fff"/></g></svg>