<svg xmlns="http://www.w3.org/2000/svg" viewBox="0 0 256 256" width="48" height="48"><g fill="none" stroke-miterlimit="10" font-family="none" font-weight="none" font-size="none" text-anchor="none" style="mix-blend-mode:normal"><path d="M128.25 26.667c-8.293.026-14.042.757-20.991 1.957-20.523 3.573-24.262 11.077-24.262 24.907v21.136h48v10.666H57.973c-14.058 0-26.362 6.624-30.261 22.502-4.405 18.224-4.603 29.637 0 48.666 3.493 14.192 11.19 24.832 25.253 24.832h19.371v-27.221c0-15.819 14.325-31.445 30.741-31.445h38.592c13.456 0 26.667-9.931 26.667-23.344V53.53c0-13.008-9.381-22.736-22.496-24.918.325-.032-9.365-1.978-17.59-1.946zM101.67 48c4.378 0 8 3.61 8 8.01 0 4.443-3.622 7.99-8 7.99-4.465 0-8-3.541-8-7.99 0-4.383 3.535-8.01 8-8.01z" fill="#000406"/><path d="M123.083 229.333c8.293-.026 14.042-.757 20.992-1.957 20.522-3.573 24.26-11.077 24.26-24.907v-21.136h-48v-10.666h73.03c14.059 0 26.363-6.624 30.262-22.502 4.405-18.224 4.602-29.637 0-48.666-3.5-14.192-11.195-24.832-25.26-24.832h-19.37v27.22c0 15.82-14.325 31.446-30.741 31.446h-38.592c-13.456 0-26.667 9.93-26.667 23.344v45.792c0 13.008 9.382 22.736 22.496 24.918-.325.032 9.366 1.978 17.59 1.946zM149.669 208c-4.378 0-8-3.61-8-8.01 0-4.443 3.622-7.99 8-7.99 4.464 0 8 3.541 8 7.99 0 4.383-3.541 8.01-8 8.01z" fill="#000"/></g></svg>