<svg xmlns="http://www.w3.org/2000/svg" viewBox="0 0 256 256" width="48" height="48"><g fill="none" stroke-miterlimit="10" font-family="none" font-weight="none" font-size="none" text-anchor="none" style="mix-blend-mode:normal"><path fill="#000" d="M32 32h192v192H32z"/><path d="M146.613 117.333H75.877v17.408h25.37v78.592h20.102v-78.592h25.264zM209.035 139.115s-9.531-6.358-20.304-6.358c-10.774 0-14.651 5.12-14.651 10.592 0 14.123 39.365 12.71 39.365 41.13 0 43.782-60.021 24.364-60.021 24.364V187.84s11.477 8.65 25.243 8.65c13.765 0 13.242-9.002 13.242-10.24 0-13.06-39.013-13.06-39.013-42.015 0-39.366 56.843-23.835 56.843-23.835z" fill="#fff"/></g></svg>