<svg id="eaV4AUZCiYr1" xmlns="http://www.w3.org/2000/svg" xmlns:xlink="http://www.w3.org/1999/xlink" viewBox="0 -179.5 512 512" shape-rendering="geometricPrecision" text-rendering="geometricPrecision"><g><path d="M140.106589,96.627818c-8.320937,0-16.117131-3.523279-23.201172-9.257979l1.724158-8.096047.074964-.299853c1.536749-8.620791,6.40937-23.088727,21.40205-23.088727c11.244509,0,20.390044,9.145535,20.390044,20.390044-.037482,11.207028-9.183017,20.352562-20.390044,20.352562v0Zm0-61.395021c-19.153148,0-33.995901,12.443923-40.030454,32.908931-9.220498-13.830747-16.192094-30.435139-20.277599-44.415813h-20.614934v53.636311c0,10.569838-8.620791,19.190629-19.19063,19.190629s-19.190629-8.620791-19.190629-19.190629v-53.636311h-20.614935v53.636311c-.074963,21.964275,17.803807,39.992972,39.768083,39.992972s39.843045-18.028697,39.843045-39.992972v-8.995608c4.010542,8.358419,8.920644,16.791801,14.880234,24.28814L82.047438,152.025769h21.102196l9.145534-43.066472c8.021084,5.134993,17.241582,8.358419,27.811421,8.358419c22.601464,0,41.004978-18.515959,41.004978-41.117423c0-22.563983-18.403514-40.967496-41.004978-40.967496v0Z" fill="#6fda44"/><path d="M244.043338,37.556662l13.306003,53.63631l14.655344-53.63631h17.466472l-22.526501,77.512152h-17.466472L235.647438,61.095168l-13.793265,53.936164h-17.466472l-22.5265-77.512152h17.466471l14.655344,53.636311L227.289019,37.51918h16.754319v.037482Zm87.219912-2.323865c-22.676427,0-41.042459,18.403513-41.042459,41.042459c0,22.676428,18.403514,41.04246,41.042459,41.04246c22.676428,0,41.079942-18.366032,41.079942-41.04246s-18.403514-41.042459-41.079942-41.042459Zm0,65.218155c-13.343484,0-24.138213-10.794729-24.138213-24.138214s10.83221-24.138214,24.138213-24.138214c13.343485,0,24.138214,10.794729,24.138214,24.138214c0,13.306003-10.794729,24.138214-24.138214,24.138214Zm90.968082-45.540264c-11.731771,0-21.214641,9.520352-21.214641,21.214641v38.906003h-17.578916v-77.47467h17.578916v11.91918c0,0,7.49634-11.956662,22.901318-11.956662h5.397364v17.391508h-7.084041ZM481.227526,73.27672c12.481405-7.046559,20.952269-20.427525,20.952269-35.75754h-17.578917c0,12.931186-10.494875,23.426062-23.426061,23.426062h-2.361347v-60.795315h-17.578917v114.881405h17.578917v-36.507174h2.098975c1.724158,0,3.97306,1.124451,4.985066,2.511274l24.962811,33.9959h21.064715L481.227526,73.27672Z"/></g></svg>
